<svg height="511pt" viewBox="0 -1 511.99965 511" width="511pt" xmlns="http://www.w3.org/2000/svg"><path d="m478.507812 19.109375-10.023437-14.757813c-2.730469-4.015624-8.199219-5.058593-12.214844-2.332031l-71.679687 48.707031c-3.347656 2.273438-5.8125 5.625-6.992188 9.492188l-34.523437 113.371094 33.890625 10.320312 30.691406-100.785156c1.300781-4.273438 4.027344-7.976562 7.726562-10.488281l60.796876-41.3125c4.015624-2.730469 5.058593-8.199219 2.328124-12.214844zm0 0" fill="#6ee4ff"/><path d="m507.449219 250.363281c21.03125 110.921875-25.652344 259.382813-249.558594 259.382813-223.882813 0-270.578125-148.484375-249.5625-259.382813l44.082031-50.085937h397.804688zm0 0" fill="#bde965"/><path d="m396.886719 118.488281h-37.035157l-16.78125 55.097657 33.894532 10.320312zm0 0" fill="#61caff"/><path d="m507.453125 250.363281-14.253906-6.480469c-10.679688-4.847656-22.148438-7.277343-33.617188-7.277343-11.464843 0-22.9375 2.429687-33.613281 7.277343-21.359375 9.699219-45.867188 9.699219-67.222656 0h-.011719c-10.679687-4.847656-22.148437-7.277343-33.605469-7.277343-11.46875 0-22.9375 2.429687-33.617187 7.277343-10.679688 4.851563-22.148438 7.28125-33.617188 7.28125s-22.933593-2.429687-33.613281-7.28125c-21.359375-9.695312-45.867188-9.695312-67.222656 0h-.011719c-10.679687 4.851563-22.148437 7.28125-33.613281 7.28125-11.460938 0-22.929688-2.429687-33.605469-7.28125-21.359375-9.695312-45.875-9.695312-67.234375 0l-14.261719 6.480469c5.496094-29.011719 15.640625-55.460937 28.441407-76 9.660156-15.496093 26.574218-24.96875 44.824218-24.96875h352.609375c17.925781 0 34.761719 9.027344 44.324219 24.191407 13.039062 20.660156 23.351562 47.402343 28.921875 76.777343zm0 0" fill="#eceaec"/><path d="m259.140625 509.742188c6.453125-.039063 12.90625-.152344 19.355469-.429688-206.152344-8.867188-249.316406-151.539062-228.957032-258.953125 3.398438-17.941406 8.578126-34.894531 15.0625-50.082031h-12.191406s-44.078125 50.082031-44.082031 50.085937c-.164063.867188-.324219 1.734375-.480469 2.605469-2.710937 15.136719-4.089844 30.515625-4.066406 45.894531.054688 31.289063 5.96875 63.378907 19.796875 92.792969 11.882813 25.265625 29.625 47.808594 51.421875 65.261719 51.054688 40.886719 119.097656 52.832031 182.890625 52.832031.417969-.003906.832031-.003906 1.25-.007812zm0 0" fill="#7fda4e"/><path d="m36.773438 174.363281c-6.402344 10.269531-12.136719 22.015625-16.960938 34.820313-5.027344 13.347656-8.828125 27.167968-11.484375 41.179687l14.261719-6.480469c9.539062-4.328124 19.703125-6.710937 29.933594-7.175781 5.824218-23.628906 14.695312-45.078125 25.457031-62.34375 9.65625-15.492187 26.566406-24.96875 44.8125-24.96875h-41.195313c-18.25 0-35.167968 9.472657-44.824218 24.96875zm0 0" fill="#d2d2d2"/><g fill="#4b3f4e"><path d="m155.765625 366.957031c-4.269531 0-7.726563-3.460937-7.726563-7.726562v-18.484375c0-4.265625 3.457032-7.726563 7.726563-7.726563 4.265625 0 7.726563 3.460938 7.726563 7.726563v18.484375c0 4.265625-3.460938 7.726562-7.726563 7.726562zm0 0"/><path d="m360.015625 366.957031c-4.265625 0-7.726563-3.460937-7.726563-7.726562v-18.484375c0-4.265625 3.460938-7.726563 7.726563-7.726563 4.269531 0 7.726563 3.460938 7.726563 7.726563v18.484375c0 4.265625-3.457032 7.726562-7.726563 7.726562zm0 0"/><path d="m257.890625 376.820312c-12.050781 0-23.359375-5.027343-31.023437-13.792968-2.808594-3.210938-2.480469-8.09375.734374-10.902344 3.210938-2.808594 8.09375-2.480469 10.902344.734375 4.726563 5.40625 11.792969 8.507813 19.386719 8.507813s14.660156-3.101563 19.390625-8.507813c2.804688-3.214844 7.6875-3.542969 10.902344-.734375 3.210937 2.808594 3.539062 7.691406.730468 10.902344-7.660156 8.765625-18.96875 13.792968-31.023437 13.792968zm0 0"/></g><path d="m102.265625 72.988281c-14.4375-7.335937-32.667969-2.128906-40.003906 12.191407-.949219 1.894531-1.777344 4.027343-2.429688 6.214843-1.300781-1.894531-2.722656-3.667969-4.199219-5.148437-11.421874-11.421875-28.824218-12.605469-40.246093-1.183594s-10.238281 28.824219 1.179687 40.246094c1.480469 1.480468 3.257813 2.902344 5.152344 4.203125-2.191406.648437-4.320312 1.476562-6.214844 2.425781-14.324218 7.339844-19.53125 25.566406-12.191406 40.007812 7.335938 14.441407 24.972656 20.121094 39.414062 12.785157 1.894532-.949219 3.726563-2.191407 5.621094-3.609375-.058594 2.304687.058594 4.554687.355469 6.625 2.546875 16.039062 17.519531 26.871094 33.496094 24.382812 16.097656-2.484375 25.691406-16.453125 23.203125-32.3125-.355469-2.132812-.945313-4.261718-1.714844-6.453125 2.191406.769531 4.320312 1.363281 6.449219 1.71875 15.980469 2.484375 29.828125-7.222656 32.316406-23.203125 2.542969-16.035156-8.34375-30.949218-24.382813-33.496094-2.074218-.296874-4.320312-.414062-6.628906-.355468 1.421875-1.894532 2.664063-3.726563 3.609375-5.621094 7.335938-14.441406 1.65625-32.078125-12.785156-39.417969zm0 0" fill="#ffc261"/><path d="m87.070312 138.273438c0 10.203124-8.273437 18.476562-18.476562 18.476562s-18.472656-8.273438-18.472656-18.476562c0-10.203126 8.269531-18.472657 18.472656-18.472657s18.476562 8.269531 18.476562 18.472657zm0 0" fill="#ffff7f"/></svg>