<svg height="512pt" viewBox="0 0 512 512.00103" width="512pt" xmlns="http://www.w3.org/2000/svg"><path d="m90.789062 376.664062c-6.390624-2.453124-12.234374-6.761718-17.832031-10.617187-29.769531-20.519531-55.75-47.507813-71.546875-80.304687-3.40625-7.074219-.433594-15.566407 6.640625-18.976563 6.488281-3.125 14.175781-.878906 18.03125 4.972656 17.117188 25.992188 40.703125 44.707031 68.308594 58.773438 4.632813 2.359375 9.328125 4.601562 14.191406 6.457031 11.613281 3.640625 17.300781 17.578125 13.074219 28.582031-5.21875 13.582031-19.042969 15.648438-30.867188 11.113281zm0 0" fill="#ffe176"/><path d="m78.34375 76.953125c-10.117188 33.476563-35.386719 34.65625-36.515625 57.988281-.800781 16.496094 11.285156 30.820313 27.574219 33.558594 18.203125 3.058594 36.796875-2.878906 36.796875-2.878906l51.675781-120.71875c-39.757812-39.257813-72.101562 2.296875-79.53125 32.050781zm0 0" fill="#ffc261"/><path d="m474.9375 76.953125c10.117188 33.476563 35.386719 34.65625 36.515625 57.988281.800781 16.496094-11.289063 30.820313-27.574219 33.558594-18.207031 3.058594-36.796875-2.878906-36.796875-2.878906l-51.675781-120.722656c39.757812-39.253907 72.101562 2.300781 79.53125 32.054687zm0 0" fill="#ffc261"/><path d="m121.65625 365.550781c4.226562-11.003906-1.460938-24.941406-13.074219-28.582031-4.863281-1.855469-9.558593-4.097656-14.191406-6.457031-8.882813-4.527344-17.339844-9.539063-25.308594-15.113281-6.757812 9.285156-13.246093 20.796874-17.328125 34.324218 6.777344 5.824219 13.875 11.269532 21.207032 16.324219 5.59375 3.855469 11.441406 8.164063 17.832031 10.613281 11.820312 4.539063 25.644531 2.472656 30.863281-11.109375zm0 0" fill="#ffc261"/><path d="m440.824219 456.808594c-3.46875-3.035156-3.652344-8.386719-.308594-11.554688 59.570313-56.402344 27.261719-103.730468 10.457031-121.597656-4.914062-5.226562-7.175781-12.390625-6.089844-19.480469 8.8125-57.433593 34.84375-304.175781-168.242187-304.175781s-177.054687 246.742188-168.242187 304.175781c1.085937 7.089844-1.175782 14.257813-6.089844 19.480469-16.804688 17.867188-49.113282 65.195312 10.457031 121.597656 3.34375 3.167969 3.160156 8.523438-.304687 11.558594-9.183594 8.039062-23.894532 25.546875-23.894532 55.1875h376.148438c0-29.644531-14.710938-47.148438-23.890625-55.191406zm0 0" fill="#ffe176"/><path d="m268.914062 512v-154.933594c0-4.265625 3.460938-7.726562 7.726563-7.726562 4.269531 0 7.726563 3.460937 7.726563 7.726562v154.933594zm0 0" fill="#ffc261"/><g fill="#4b3f4e"><path d="m196.859375 131.613281c-4.265625 0-7.726563 3.460938-7.726563 7.726563v14.441406c0 4.265625 3.460938 7.726562 7.726563 7.726562 4.269531 0 7.726563-3.460937 7.726563-7.726562v-14.441406c0-4.265625-3.457032-7.726563-7.726563-7.726563zm0 0"/><path d="m356.421875 131.613281c-4.269531 0-7.726563 3.460938-7.726563 7.726563v14.441406c0 4.265625 3.457032 7.726562 7.726563 7.726562 4.265625 0 7.726563-3.460937 7.726563-7.726562v-14.441406c0-4.265625-3.460938-7.726563-7.726563-7.726563zm0 0"/><path d="m254.980469 159.265625c6.582031 2.835937 13.921875 4.421875 21.660156 4.421875s15.078125-1.585938 21.660156-4.421875c6.910157-2.976563 4.804688-13.285156-2.71875-13.285156h-37.882812c-7.523438 0-9.632813 10.308593-2.71875 13.285156zm0 0"/><path d="m317.03125 175.054688c-3.210938-2.804688-8.09375-2.480469-10.902344.734374-2.871094 3.285157-7.183594 5.167969-11.835937 5.167969-4.648438 0-8.964844-1.882812-11.835938-5.167969-1.433593-1.640624-3.636719-2.632812-5.816406-2.632812-2.203125 0-4.367187.972656-5.816406 2.632812-2.871094 3.285157-7.1875 5.167969-11.835938 5.167969-4.652343 0-8.964843-1.882812-11.835937-5.167969-2.808594-3.214843-7.691406-3.542968-10.902344-.734374-3.214844 2.808593-3.542969 7.691406-.734375 10.90625 5.808594 6.640624 14.363281 10.449218 23.472656 10.449218 6.414063 0 12.550781-1.898437 17.652344-5.335937 5.097656 3.4375 11.234375 5.335937 17.652344 5.335937 9.109375 0 17.664062-3.808594 23.472656-10.449218 2.808594-3.214844 2.480469-8.097657-.734375-10.90625zm0 0"/></g><path d="m211.761719 440.207031c-16.949219-39.59375-14.289063-70.808593-13.046875-79.5625l.386718-2.316406c.6875-4.152344-2.074218-8.089844-6.210937-8.859375s-8.128906 1.914062-8.980469 6.035156c-.019531.105469-.226562 1.121094-.476562 2.863282 0 .007812-.003906.011718-.003906.015624-1.382813 9.667969-4.449219 44.511719 14.128906 87.902344 1.53125 3.574219.128906 7.75-3.257813 9.71875-11.539062 6.703125-26.644531 18.617188-33.105469 37.324219-2.054687 5.953125-3.09375 12.234375-3.09375 18.671875h15.558594l2.351563-14.214844c5.035156-13.890625 16.90625-23.109375 26.046875-28.417968 10.132812-5.882813 14.304687-18.417969 9.703125-29.160157zm0 0" fill="#ffc261"/><path d="m379.621094 512h15.558594c0-6.4375-1.042969-12.71875-3.097657-18.671875-6.457031-18.707031-21.5625-30.621094-33.101562-37.320313-3.386719-1.96875-4.789063-6.148437-3.257813-9.722656 18.578125-43.390625 15.515625-78.230468 14.128906-87.902344 0-.003906-.003906-.007812-.003906-.015624-.25-1.742188-.457031-2.753907-.480468-2.863282-.847657-4.121094-4.839844-6.804687-8.976563-6.035156s-6.898437 4.707031-6.210937 8.859375l.382812 2.320313c1.246094 8.753906 3.902344 39.96875-13.046875 79.558593-4.597656 10.742188-.425781 23.277344 9.703125 29.164063 9.140625 5.308594 21.015625 14.523437 26.050781 28.414062zm0 0" fill="#ffc261"/></svg>