<svg height="512pt" viewBox="-19 0 512 512" width="512pt" xmlns="http://www.w3.org/2000/svg"><path d="m74.351562 212.730469-36.773437-82.019531 69.785156-70.929688h257.773438l70.925781 70.929688-102.664062 229.015624-61.664063 36.976563 15.28125 66.496094-10.296875 22.960937c-3.527344 7.855469-9.191406 14.320313-16.128906 18.820313-6.941406 4.492187-15.152344 7.019531-23.769532 7.019531-17.234374 0-32.847656-10.113281-39.898437-25.839844l-67.570313-150.738281-7.644531-64.277344zm0 0" fill="#ffe176"/><path d="m365.136719 59.78125h-257.773438l-69.785156 70.929688 18.222656 40.644531c6.417969-1.613281 12.507813-4.410157 18.007813-8.332031 9.894531-7.046876 21.570312-13.496094 34.699218-19.160157 41.457032-17.886719 81.03125-25.863281 128.3125-25.863281 47.289063 0 86.867188 7.976562 128.316407 25.859375 13.132812 5.671875 24.804687 12.117187 34.691406 19.164063 5.503906 3.921874 11.59375 6.71875 18.015625 8.335937l18.21875-40.648437zm0 0" fill="#ffc261"/><path d="m463.632812 63.5625c-15.339843-10.40625-32.648437-19.796875-51.75-28.039062-53.851562-23.242188-107.769531-35.523438-175.0625-35.523438-67.292968 0-121.210937 12.28125-175.0625 35.515625-19.105468 8.25-36.410156 17.648437-51.75 28.058594-8.957031 6.078125-12.375 17.582031-8.3125 27.613281 6.636719 16.386719 14.554688 30.0625 22.15625 41.015625 7.269532 10.464844 21.648438 13.042969 32.023438 5.652344 11.511719-8.199219 25.136719-15.789063 40.390625-22.371094 42.433594-18.308594 85.824219-28.390625 140.554687-28.390625 54.734376 0 98.132813 10.082031 140.566407 28.390625 15.242187 6.582031 28.867187 14.167969 40.375 22.367187 10.378906 7.394532 24.761719 4.816407 32.027343-5.652343 7.605469-10.953125 15.519532-24.628907 22.15625-41.019531 4.0625-10.035157.644532-21.539063-8.3125-27.617188zm0 0" fill="#fda756"/><g fill="#4b3f4e"><path d="m158.488281 61.839844c-4.265625 0-7.726562-3.457032-7.726562-7.722656v-14.179688c0-4.265625 3.460937-7.726562 7.726562-7.726562 4.269531 0 7.726563 3.460937 7.726563 7.726562v14.179688c0 4.265624-3.457032 7.722656-7.726563 7.722656zm0 0"/><path d="m315.152344 61.839844c-4.265625 0-7.726563-3.457032-7.726563-7.722656v-14.179688c0-4.265625 3.460938-7.726562 7.726563-7.726562s7.726562 3.460937 7.726562 7.726562v14.179688c0 4.265624-3.460937 7.722656-7.726562 7.722656zm0 0"/><path d="m236.820312 69.410156c-9.765624 0-18.929687-4.082031-25.152343-11.195312-2.804688-3.214844-2.480469-8.09375.734375-10.902344s8.09375-2.480469 10.902344.730469c3.285156 3.757812 8.210937 5.914062 13.515624 5.914062 5.304688 0 10.230469-2.15625 13.515626-5.914062 2.808593-3.210938 7.691406-3.539063 10.902343-.730469 3.214844 2.808594 3.542969 7.6875.734375 10.902344-6.21875 7.113281-15.386718 11.195312-25.152344 11.195312zm0 0"/></g><path d="m169.058594 274.082031c0 27.316407-16.304688 50.832031-39.707032 61.339844l-55-122.691406c8.394532-3.769531 17.699219-5.863281 27.5-5.863281 37.117188 0 67.207032 30.085937 67.207032 67.214843zm0 0" fill="#f55d67"/><path d="m333.398438 359.726562-46.382813 103.476563c-3.175781.464844-6.433594.707031-9.738281.707031-37.117188 0-67.207032-30.089844-67.207032-67.207031s30.089844-67.207031 67.207032-67.207031c23.453125 0 44.105468 12.015625 56.121094 30.230468zm0 0" fill="#f55d67"/><path d="m337.070312 206.347656c0 37.121094-30.089843 67.210938-67.210937 67.210938s-67.210937-30.089844-67.210937-67.210938c0-37.117187 30.089843-67.210937 67.210937-67.210937s67.210937 30.09375 67.210937 67.210937zm0 0" fill="#ff3d5d"/></svg>