<svg height="511pt" viewBox="0 0 511.99961 511" width="511pt" xmlns="http://www.w3.org/2000/svg"><path d="m506.980469 215.136719c-27.359375-13.695313-38.496094-46.925781-24.917969-74.339844 2.824219-5.707031-.945312-12.476563-7.285156-13.078125-30.457032-2.886719-52.847656-29.851562-50.089844-60.320312.574219-6.34375-5.386719-11.292969-11.515625-9.5625-29.441406 8.308593-60.0625-8.746094-68.496094-38.152344-1.753906-6.125-9.101562-8.585938-14.191406-4.757813-24.453125 18.386719-59.167969 13.542969-77.65625-10.832031-3.847656-5.074219-11.585937-4.714844-14.953125.691406-16.15625 25.976563-50.277344 34-76.320312 17.953125-5.421876-3.34375-12.511719-.210937-13.691407 6.042969-5.6875 30.0625-34.601562 49.867188-64.6875 44.3125-6.261719-1.160156-11.742187 4.320312-10.582031 10.582031 5.554688 30.085938-14.25 59-44.308594 64.6875-6.261718 1.183594-9.390625 8.269531-6.046875 13.691407 16.046875 26.042968 8.023438 60.164062-17.953125 76.320312-5.40625 3.367188-5.765625 11.105469-.691406 14.953125 24.375 18.488281 29.21875 53.203125 10.832031 77.65625-3.824219 5.089844-1.363281 12.4375 4.757813 14.191406 29.40625 8.433594 46.464844 39.054688 38.152344 68.496094-1.726563 6.128906 3.222656 12.089844 9.566406 11.515625 30.464844-2.757812 57.429687 19.632812 60.320312 50.089844.597656 6.339844 7.367188 10.109375 13.074219 7.285156 27.414063-13.578125 60.648437-2.441406 74.34375 24.914062 2.847656 5.695313 10.523437 6.765626 14.824219 2.070313 20.65625-22.566406 55.667968-24.183594 78.320312-3.621094 4.71875 4.28125 12.257813 2.503907 14.574219-3.429687 11.109375-28.5 43.171875-42.660156 71.722656-31.667969 5.945313 2.289063 12.335938-2.089844 12.351563-8.460937.0625-30.589844 24.847656-55.375 55.441406-55.441407 6.367188-.011719 10.746094-6.40625 8.457031-12.347656-10.988281-28.550781 3.167969-60.613281 31.671875-71.726563 5.933594-2.3125 7.707032-9.855468 3.425782-14.570312-20.5625-22.652344-18.941407-57.664062 3.621093-78.324219 4.695313-4.296875 3.625-11.96875-2.070312-14.820312zm0 0" fill="#ffe176"/><path d="m452.660156 256.5c0 108.613281-88.046875 196.660156-196.660156 196.660156s-196.664062-88.046875-196.664062-196.660156 88.050781-196.664062 196.664062-196.664062 196.660156 88.050781 196.660156 196.664062zm0 0" fill="#ffc261"/><path d="m100.542969 256.5c0-101.65625 77.128906-185.289062 176.058593-195.589844-6.773437-.707031-13.644531-1.074218-20.601562-1.074218-108.617188 0-196.664062 88.046874-196.664062 196.664062 0 108.613281 88.046874 196.660156 196.664062 196.660156 6.957031 0 13.828125-.363281 20.601562-1.070312-98.929687-10.300782-176.058593-93.933594-176.058593-195.589844zm0 0" fill="#fda756"/><path d="m438.285156 173.015625c-117.949218-17.449219-113.085937 10.140625-182.285156 10.140625-69.203125 0-64.339844-27.589844-182.285156-10.140625-8.730469 1.289063-14.644532 9.574219-13.011719 18.246094l.285156 1.503906c.632813 3.375 2.402344 6.414063 4.941407 8.734375 4.964843 4.535156 13.421874 16.347656 16.699218 45.503906 4.761719 42.40625 47.304688 53.84375 71.539063 53.84375 24.113281 2.441406 67.585937-4.652344 76.597656-46.363281 3.089844-14.296875 7.027344-24.175781 10.863281-30.984375 6.292969-11.15625 22.453125-11.15625 28.742188 0 3.835937 6.808594 7.773437 16.6875 10.863281 30.984375 9.011719 41.710937 52.484375 48.804687 76.597656 46.363281 24.234375 0 66.773438-11.4375 71.539063-53.84375 3.277344-29.15625 11.734375-40.96875 16.699218-45.503906 2.539063-2.320312 4.308594-5.359375 4.945313-8.734375l.28125-1.503906c1.628906-8.671875-4.285156-16.957031-13.011719-18.246094zm0 0" fill="#f55d67"/><path d="m118.011719 199.203125c16.796875-2.015625 48.617187-4.300781 80.925781 7.773437 4.363281 1.628907 7.21875 5.847657 7.121094 10.503907-.34375 16.691406-5.808594 54.003906-51.144532 54.363281-42.609374.339844-46.324218-39.859375-46.570312-61.597656-.066406-5.609375 4.097656-10.375 9.667969-11.042969zm0 0" fill="#5d5360"/><path d="m139.25 210.246094c-.066406-5.609375 4.09375-10.375 9.664062-11.042969 2.882813-.34375 6.214844-.699219 9.902344-.984375-16.695312-1.402344-31.207031-.167969-40.804687.984375-5.570313.667969-9.734375 5.433594-9.667969 11.042969.25 21.738281 3.964844 61.9375 46.570312 61.597656 5.917969-.046875 11.140626-.734375 15.78125-1.914062-28.414062-8.203126-31.230468-40.859376-31.445312-59.683594zm0 0" fill="#4b3f4e"/><path d="m393.988281 199.203125c-16.800781-2.015625-48.621093-4.300781-80.929687 7.773437-4.363282 1.628907-7.214844 5.847657-7.121094 10.503907.34375 16.691406 5.8125 54.003906 51.144531 54.363281 42.609375.339844 46.324219-39.859375 46.574219-61.597656.0625-5.609375-4.097656-10.375-9.667969-11.042969zm0 0" fill="#5d5360"/><g fill="#4b3f4e"><path d="m336.84375 207.179688c-.054688-2.691407.878906-5.234376 2.519531-7.21875-8.527343 1.453124-17.394531 3.6875-26.304687 7.015624-4.363282 1.628907-7.214844 5.847657-7.121094 10.503907.34375 16.691406 5.8125 54.003906 51.144531 54.363281 6.050781.046875 11.320313-.722656 15.902344-2.140625-31.597656-9.484375-35.839844-47.886719-36.140625-62.523437zm0 0"/><path d="m256 310.859375c-9.683594 0-18.777344-4.050781-24.945312-11.105469-2.808594-3.210937-2.480469-8.09375.734374-10.902344 3.210938-2.808593 8.089844-2.480468 10.898438.734376 3.234375 3.699218 8.085938 5.820312 13.3125 5.820312 5.222656 0 10.074219-2.121094 13.304688-5.820312 2.8125-3.214844 7.691406-3.539063 10.902343-.734376 3.214844 2.808594 3.542969 7.691407.734375 10.902344-6.167968 7.054688-15.257812 11.105469-24.941406 11.105469zm0 0"/></g></svg>