<?xml version="1.0" encoding="iso-8859-1"?>
<!-- Generator: Adobe Illustrator 19.0.0, SVG Export Plug-In . SVG Version: 6.00 Build 0)  -->
<svg version="1.1" id="Capa_1" xmlns="http://www.w3.org/2000/svg" xmlns:xlink="http://www.w3.org/1999/xlink" x="0px" y="0px"
	 viewBox="0 0 486.602 486.602" style="enable-background:new 0 0 486.602 486.602;" xml:space="preserve">
<linearGradient id="SVGID_1_" gradientUnits="userSpaceOnUse" x1="347.0021" y1="493.298" x2="347.0021" y2="34.768" gradientTransform="matrix(1 0 0 -1 0 488.5961)">
	<stop  offset="0" style="stop-color:#00EFD1"/>
	<stop  offset="1" style="stop-color:#00ACEA"/>
</linearGradient>
<path style="fill:url(#SVGID_1_);" d="M301.85,160.355c0.003,24.937,20.22,45.15,45.157,45.147
	c24.937-0.003,45.15-20.22,45.147-45.157c-0.003-24.935-20.217-45.147-45.152-45.147C322.064,115.2,301.849,135.417,301.85,160.355z
	 M324.45,187.467c-4.996,0.014-9.058-4.024-9.072-9.02s4.024-9.058,9.02-9.072c4.996-0.014,9.058,4.024,9.072,9.02
	c0.013,4.995-4.023,9.055-9.018,9.072H324.45z M374.112,146.825c-0.014,9.978-8.114,18.054-18.092,18.04
	c-9.978-0.014-18.054-8.114-18.04-18.092c0.014-9.958,8.085-18.027,18.043-18.04c9.976-0.015,18.076,8.06,18.091,18.037
	c0,0.018,0,0.037,0,0.055H374.112z"/>
<g>
	
		<linearGradient id="SVGID_2_" gradientUnits="userSpaceOnUse" x1="139.6451" y1="493.298" x2="139.6451" y2="34.768" gradientTransform="matrix(1 0 0 -1 0 488.5961)">
		<stop  offset="0" style="stop-color:#00EFD1"/>
		<stop  offset="1" style="stop-color:#00ACEA"/>
	</linearGradient>
	<path style="fill:url(#SVGID_2_);" d="M139.644,205.507c24.937,0.001,45.153-20.215,45.154-45.152
		c0.001-24.937-20.215-45.153-45.152-45.154s-45.153,20.215-45.154,45.152c0,0.001,0,0.001,0,0.002
		C94.494,185.291,114.708,205.505,139.644,205.507L139.644,205.507z M148.664,128.733c9.978-0.014,18.078,8.062,18.092,18.04
		s-8.062,18.078-18.04,18.092c-9.978,0.014-18.078-8.062-18.092-18.04C130.615,136.85,138.689,128.752,148.664,128.733z
		 M117.094,169.375c4.996,0.014,9.034,4.076,9.02,9.072c-0.014,4.996-4.076,9.034-9.072,9.02c-4.996-0.014-9.034-4.076-9.02-9.072
		c0.004-4.985,4.048-9.024,9.034-9.02C117.069,169.375,117.081,169.375,117.094,169.375z"/>
	
		<linearGradient id="SVGID_3_" gradientUnits="userSpaceOnUse" x1="243.301" y1="493.298" x2="243.301" y2="34.768" gradientTransform="matrix(1 0 0 -1 0 488.5961)">
		<stop  offset="0" style="stop-color:#00EFD1"/>
		<stop  offset="1" style="stop-color:#00ACEA"/>
	</linearGradient>
	<path style="fill:url(#SVGID_3_);" d="M441.723,102.459C396.116,38.158,322.156-0.03,243.323,0.02
		c-38.51-0.116-76.485,9.009-110.737,26.61C99.495,43.639,70.701,67.944,48.378,97.71C-32.024,205.365-9.931,357.815,97.724,438.217
		c96.858,72.338,232.139,62.585,317.618-22.9c83.892-83.905,95.037-216.082,26.381-312.851V102.459z M411.809,116.704
		c24.112,35.787,14.647,84.345-21.141,108.457s-84.345,14.647-108.457-21.141c-24.112-35.787-14.647-84.345,21.141-108.457
		c12.898-8.69,28.097-13.333,43.65-13.335c26.011-0.08,50.336,12.861,64.806,34.476H411.809z M141.7,44.433
		c31.434-16.15,66.283-24.522,101.623-24.413c50.72-0.105,99.943,17.176,139.466,48.964c-11.401-4.477-23.539-6.778-35.787-6.786
		c-50.733,0-92.6,39.1-97.621,88.1h-12.116c-5.025-49-46.888-88.1-97.621-88.1c-12.187-0.017-24.271,2.23-35.637,6.627
		C115.721,59.45,128.349,51.278,141.7,44.433L141.7,44.433z M77.051,113.618c25.82-34.561,74.768-41.647,109.329-15.827
		s41.647,74.768,15.827,109.329s-74.768,41.647-109.329,15.827c-19.742-14.749-31.367-37.949-31.362-62.592
		C61.471,143.501,66.926,127.092,77.051,113.618z M466.601,243.298c0,123.117-100.162,223.282-223.278,223.282
		S20.045,366.414,20.045,243.298c-0.08-34.021,7.667-67.605,22.642-98.153c-0.778,5.033-1.17,10.118-1.171,15.21
		c0.063,54.164,43.964,98.053,98.128,98.1c50.733,0,92.6-39.155,97.621-88.155h12.116c5.025,49,46.888,88.155,97.621,88.155
		c54.199-0.004,98.132-43.945,98.128-98.144c0-5.063-0.393-10.118-1.173-15.12C458.914,175.729,466.661,209.294,466.601,243.298
		L466.601,243.298z"/>
	
		<linearGradient id="SVGID_4_" gradientUnits="userSpaceOnUse" x1="240.8231" y1="493.298" x2="240.8231" y2="34.768" gradientTransform="matrix(1 0 0 -1 0 488.5961)">
		<stop  offset="0" style="stop-color:#00EFD1"/>
		<stop  offset="1" style="stop-color:#00ACEA"/>
	</linearGradient>
	<path style="fill:url(#SVGID_4_);" d="M291.814,261.835c-28.282-28.204-74.072-28.141-102.276,0.141
		c-12.797,12.833-20.31,30.003-21.051,48.111c-0.064,1.043-0.164,1.99-0.164,2.831v68.117c0,39.816,32.686,72.208,72.5,72.208
		s72.5-32.392,72.5-72.208v-68.117c0-0.84-0.192-1.786-0.256-2.829C312.315,291.901,304.725,274.668,291.814,261.835z
		 M240.731,260.711c13.85-0.05,27.145,5.44,36.924,15.249c4.656,4.669,8.392,10.173,11.013,16.224
		c-30.375-14.37-65.597-14.337-95.945,0.088C200.932,273.062,219.841,260.631,240.731,260.711z M293.323,381.035
		c0,28.787-23.713,52.208-52.5,52.208s-52.5-23.421-52.5-52.208v-63.283l1.953-1.125c31.355-20.69,72.134-20.261,103.047,1.084
		V381.035z"/>
</g>
<g>
</g>
<g>
</g>
<g>
</g>
<g>
</g>
<g>
</g>
<g>
</g>
<g>
</g>
<g>
</g>
<g>
</g>
<g>
</g>
<g>
</g>
<g>
</g>
<g>
</g>
<g>
</g>
<g>
</g>
</svg>
