<?xml version="1.0" encoding="iso-8859-1"?>
<!-- Generator: Adobe Illustrator 19.0.0, SVG Export Plug-In . SVG Version: 6.00 Build 0)  -->
<svg version="1.1" id="Capa_1" xmlns="http://www.w3.org/2000/svg" xmlns:xlink="http://www.w3.org/1999/xlink" x="0px" y="0px"
	 viewBox="0 0 486.554 486.554" style="enable-background:new 0 0 486.554 486.554;" xml:space="preserve">
<linearGradient id="SVGID_1_" gradientUnits="userSpaceOnUse" x1="244.6785" y1="495.2796" x2="244.6785" y2="15.2796" gradientTransform="matrix(1 0 0 -1 0 488.5592)">
	<stop  offset="0" style="stop-color:#00EFD1"/>
	<stop  offset="1" style="stop-color:#00ACEA"/>
</linearGradient>
<path style="fill:url(#SVGID_1_);" d="M274.852,270.133c-20.062,4.614-27.319,18.507-29.5,31.207
	c-0.378,2.089-0.603,4.203-0.674,6.325c-0.331,10.946,2.572,21.747,8.346,31.052c2.719,4.461,5.696,8.76,8.914,12.876
	c-5.381,10.292-18.087,14.274-28.379,8.893c-3.364-1.759-6.189-4.395-8.175-7.629l-0.102-0.177
	c-0.471-0.742-0.889-1.515-1.253-2.314c4.55-5.324,8.665-11.004,12.306-16.986c4.8-7.772,7.63-16.598,8.243-25.712
	c0.302-3.896,0.111-7.816-0.57-11.664c-2.229-12.7-9.435-26.594-29.5-31.208c-46.552-10.679-56.3,82.736-115.239,73.3
	c-8.917-1.452-19.025-5.91-25.4-12.338c-4.147-4.2-6.065-8.035-5.287,1.918c0.829,10.523,4.458,39.294,33.384,51.58
	c29.662,13.89,73,13.4,107.326-14.489c12.634,18.783,38.103,23.768,56.886,11.134c3.762-2.531,7.078-5.668,9.814-9.284
	c34.9,31.321,80.5,32.459,111.349,17.979c28.927-12.286,32.607-41.057,33.437-51.581c0.777-9.953-1.193-6.117-5.34-1.918
	c-6.376,6.428-16.433,10.887-25.4,12.338C331.15,352.869,321.404,259.454,274.852,270.133L274.852,270.133z"/>
<g>
	
		<linearGradient id="SVGID_2_" gradientUnits="userSpaceOnUse" x1="352.1452" y1="495.2796" x2="352.1452" y2="15.2796" gradientTransform="matrix(1 0 0 -1 0 488.5592)">
		<stop  offset="0" style="stop-color:#00EFD1"/>
		<stop  offset="1" style="stop-color:#00ACEA"/>
	</linearGradient>
	<path style="fill:url(#SVGID_2_);" d="M352.145,149.969c-28.63,0-51.84,23.21-51.84,51.84s23.21,51.84,51.84,51.84
		s51.84-23.21,51.84-51.84c0,0,0-0.001,0-0.001C403.974,173.182,380.771,149.979,352.145,149.969z M326.225,232.912
		c-5.726,0-10.368-4.642-10.368-10.368s4.642-10.368,10.368-10.368c5.726,0,10.368,4.642,10.368,10.368
		C336.576,228.262,331.944,232.894,326.225,232.912z M362.513,206.992c-11.452,0-20.736-9.284-20.736-20.736
		c0-11.452,9.284-20.736,20.736-20.736c11.452,0,20.736,9.284,20.736,20.736c0.003,11.449-9.275,20.733-20.724,20.736
		C362.521,206.992,362.517,206.992,362.513,206.992L362.513,206.992z"/>
	
		<linearGradient id="SVGID_3_" gradientUnits="userSpaceOnUse" x1="134.4192" y1="495.2796" x2="134.4192" y2="15.2796" gradientTransform="matrix(1 0 0 -1 0 488.5592)">
		<stop  offset="0" style="stop-color:#00EFD1"/>
		<stop  offset="1" style="stop-color:#00ACEA"/>
	</linearGradient>
	<path style="fill:url(#SVGID_3_);" d="M134.419,253.648c28.63,0,51.84-23.21,51.84-51.84s-23.21-51.84-51.84-51.84
		s-51.84,23.21-51.84,51.84l0,0C82.59,230.434,105.793,253.637,134.419,253.648z M144.787,165.521
		c11.452,0,20.736,9.284,20.736,20.736s-9.284,20.736-20.736,20.736s-20.736-9.284-20.736-20.736c0,0,0-0.001,0-0.001
		c-0.003-11.449,9.276-20.732,20.725-20.735C144.78,165.521,144.784,165.521,144.787,165.521L144.787,165.521z M108.499,212.18
		c5.726,0,10.368,4.642,10.368,10.368c0,5.726-4.642,10.368-10.368,10.368c-5.726,0-10.368-4.642-10.368-10.368l0,0
		C98.149,216.829,102.78,212.197,108.499,212.18z"/>
	
		<linearGradient id="SVGID_4_" gradientUnits="userSpaceOnUse" x1="243.2769" y1="495.2796" x2="243.2769" y2="15.2796" gradientTransform="matrix(1 0 0 -1 0 488.5592)">
		<stop  offset="0" style="stop-color:#00EFD1"/>
		<stop  offset="1" style="stop-color:#00ACEA"/>
	</linearGradient>
	<path style="fill:url(#SVGID_4_);" d="M243.282,0.002C108.928-0.005,0.007,108.905,0,243.259
		c-0.003,64.529,25.632,126.416,71.264,172.042c95.004,95.003,249.035,95.002,344.038-0.002s95.002-249.035-0.002-344.038
		C369.779,25.488,307.838-0.172,243.282,0.002L243.282,0.002z M243.282,466.558c-123.116,0-223.278-100.162-223.278-223.278
		S120.166,20.002,243.282,20.002S466.56,120.164,466.56,243.28S366.398,466.558,243.282,466.558z"/>
</g>
<g>
</g>
<g>
</g>
<g>
</g>
<g>
</g>
<g>
</g>
<g>
</g>
<g>
</g>
<g>
</g>
<g>
</g>
<g>
</g>
<g>
</g>
<g>
</g>
<g>
</g>
<g>
</g>
<g>
</g>
</svg>
