<?xml version="1.0" encoding="iso-8859-1"?>
<!-- Generator: Adobe Illustrator 19.0.0, SVG Export Plug-In . SVG Version: 6.00 Build 0)  -->
<svg version="1.1" id="Capa_1" xmlns="http://www.w3.org/2000/svg" xmlns:xlink="http://www.w3.org/1999/xlink" x="0px" y="0px"
	 viewBox="0 0 486.556 486.556" style="enable-background:new 0 0 486.556 486.556;" xml:space="preserve">
<linearGradient id="SVGID_1_" gradientUnits="userSpaceOnUse" x1="346.956" y1="493.2948" x2="346.956" y2="34.7648" gradientTransform="matrix(1 0 0 -1 0 488.5897)">
	<stop  offset="0" style="stop-color:#00EFD1"/>
	<stop  offset="1" style="stop-color:#00ACEA"/>
</linearGradient>
<path style="fill:url(#SVGID_1_);" d="M346.957,177.407c-24.937-0.001-45.153,20.215-45.154,45.152s20.215,45.153,45.152,45.154
	s45.153-20.215,45.154-45.152c0-0.001,0-0.001,0-0.002C392.108,197.623,371.893,177.408,346.957,177.407z M324.407,249.671
	c-4.996,0.014-9.058-4.024-9.072-9.02s4.024-9.058,9.02-9.072c4.996-0.014,9.058,4.024,9.072,9.02
	C333.44,245.594,329.402,249.655,324.407,249.671z M355.977,227.071c-9.978-0.014-18.054-8.114-18.04-18.092
	s8.114-18.054,18.092-18.04c9.978,0.014,18.054,8.114,18.04,18.092c-0.008,9.97-8.098,18.046-18.068,18.038
	c-0.008,0-0.015,0-0.023,0L355.977,227.071z"/>
<g>
	
		<linearGradient id="SVGID_2_" gradientUnits="userSpaceOnUse" x1="243.278" y1="493.2948" x2="243.278" y2="34.7648" gradientTransform="matrix(1 0 0 -1 0 488.5897)">
		<stop  offset="0" style="stop-color:#00EFD1"/>
		<stop  offset="1" style="stop-color:#00ACEA"/>
	</linearGradient>
	<path style="fill:url(#SVGID_2_);" d="M485.585,221.683C473.642,87.858,355.474-10.947,221.649,0.996
		C96.177,12.194,0.006,117.323,0,243.295c0.016,8.663,0.467,17.321,1.351,25.939c14.368,133.6,134.321,230.257,267.921,215.889
		c123.559-13.289,217.244-117.556,217.284-241.828C486.556,236.058,486.229,228.785,485.585,221.683z M20.009,243.295
		c0-123.116,100.153-223.278,223.269-223.278c23.141-0.043,46.146,3.533,68.182,10.6L139.507,158.295H52.278v27.043
		c-0.01,12.416,2.411,24.714,7.127,36.2l-39.289,28.057C20.054,247.476,20.009,245.371,20.009,243.295L20.009,243.295z
		 M157.278,178.295h24v73.806c-7.573,3.688-15.667,6.193-24,7.429V178.295z M137.278,178.295v81.232
		c-8.395-0.945-16.538-3.464-24-7.425v-73.807H137.278z M93.278,178.295v59.029c-4.96-5.077-9.144-10.859-12.416-17.158
		c-5.645-10.741-8.591-22.694-8.584-34.828v-7.043L93.278,178.295z M243.278,466.573c-111.878-0.026-206.482-82.814-221.347-193.7
		l47.073-33.635c29.876,43.185,89.103,53.974,132.288,24.099c25.612-17.718,40.923-46.856,40.986-77.999v-27.043h-69.225
		L333.628,39.07c70.659,31.191,120.144,96.727,130.8,173.225h-19.85c-5.026-49-46.889-88-97.622-88
		c-54.185,0.006-98.106,43.936-98.1,98.122s43.936,98.106,98.122,98.1c50.352-0.005,92.526-38.127,97.601-88.222h21.71
		c0.173,4,0.267,7.287,0.267,10.868C466.556,366.279,366.394,466.573,243.278,466.573L243.278,466.573z M201.278,237.334v-59.039h21
		v7.043C222.165,204.714,214.653,223.314,201.278,237.334z M425.085,222.56c0,43.149-34.979,78.128-78.128,78.128
		c-43.149,0-78.128-34.979-78.128-78.128c0-43.149,34.979-78.128,78.128-78.128l0,0C390.086,144.48,425.036,179.431,425.085,222.56z
		"/>
	
		<linearGradient id="SVGID_3_" gradientUnits="userSpaceOnUse" x1="243.278" y1="493.2948" x2="243.278" y2="34.7648" gradientTransform="matrix(1 0 0 -1 0 488.5897)">
		<stop  offset="0" style="stop-color:#00EFD1"/>
		<stop  offset="1" style="stop-color:#00ACEA"/>
	</linearGradient>
	<path style="fill:url(#SVGID_3_);" d="M243.278,305.795c-62.711-0.043-113.584,50.76-113.627,113.471c0,0.01,0,0.019,0,0.029h20
		c0.063-51.668,41.959-93.524,93.627-93.538c51.626,0,93.627,42.538,93.627,93.538h20
		C356.905,357.295,305.932,305.795,243.278,305.795z"/>
</g>
<g>
</g>
<g>
</g>
<g>
</g>
<g>
</g>
<g>
</g>
<g>
</g>
<g>
</g>
<g>
</g>
<g>
</g>
<g>
</g>
<g>
</g>
<g>
</g>
<g>
</g>
<g>
</g>
<g>
</g>
</svg>
