<?xml version="1.0" encoding="iso-8859-1"?>
<!-- Generator: Adobe Illustrator 19.0.0, SVG Export Plug-In . SVG Version: 6.00 Build 0)  -->
<svg version="1.1" id="Capa_1" xmlns="http://www.w3.org/2000/svg" xmlns:xlink="http://www.w3.org/1999/xlink" x="0px" y="0px"
	 viewBox="0 0 499.721 499.721" style="enable-background:new 0 0 499.721 499.721;" xml:space="preserve">
<linearGradient id="SVGID_1_" gradientUnits="userSpaceOnUse" x1="151.3528" y1="501.532" x2="151.3528" y2="27.59" gradientTransform="matrix(1 0 0 -1 0 502)">
	<stop  offset="0" style="stop-color:#00EFD1"/>
	<stop  offset="1" style="stop-color:#00ACEA"/>
</linearGradient>
<path style="fill:url(#SVGID_1_);" d="M207.772,207.84l-19.6-3.993c-4.245,20.59-24.378,33.841-44.968,29.596
	c-13.977-2.882-25.169-13.339-28.99-27.09l-19.281,5.312c3.386,12.097,10.573,22.784,20.5,30.482
	c25.381,19.587,61.835,14.889,81.422-10.492c5.404-7.003,9.137-15.149,10.912-23.815H207.772z"/>
<g>
	
		<linearGradient id="SVGID_2_" gradientUnits="userSpaceOnUse" x1="348.5254" y1="501.532" x2="348.5254" y2="27.59" gradientTransform="matrix(1 0 0 -1 0 502)">
		<stop  offset="0" style="stop-color:#00EFD1"/>
		<stop  offset="1" style="stop-color:#00ACEA"/>
	</linearGradient>
	<path style="fill:url(#SVGID_2_);" d="M348.085,234.24c-8.412,0.023-16.591-2.762-23.241-7.915
		c-6.51-5.043-11.227-12.044-13.455-19.972l-19.281,5.312c3.386,12.097,10.573,22.784,20.5,30.482
		c25.381,19.587,61.835,14.889,81.422-10.492c5.404-7.003,9.137-15.149,10.912-23.815l-19.6-3.993
		C381.679,221.517,366.131,234.201,348.085,234.24z"/>
	
		<linearGradient id="SVGID_3_" gradientUnits="userSpaceOnUse" x1="246.8613" y1="501.532" x2="246.8613" y2="27.59" gradientTransform="matrix(1 0 0 -1 0 502)">
		<stop  offset="0" style="stop-color:#00EFD1"/>
		<stop  offset="1" style="stop-color:#00ACEA"/>
	</linearGradient>
	<path style="fill:url(#SVGID_3_);" d="M150.861,351h192v20h-192V351z"/>
	
		<linearGradient id="SVGID_4_" gradientUnits="userSpaceOnUse" x1="249.8607" y1="501.532" x2="249.8607" y2="27.59" gradientTransform="matrix(1 0 0 -1 0 502)">
		<stop  offset="0" style="stop-color:#00EFD1"/>
		<stop  offset="1" style="stop-color:#00ACEA"/>
	</linearGradient>
	<path style="fill:url(#SVGID_4_);" d="M457.861,116V96h-66.779l27.973-39c3.239-4.566,2.164-10.893-2.402-14.132
		c-1.677-1.19-3.676-1.841-5.732-1.868h-46.487c-35.08-18-74.655-28.429-114.573-28.429C115.325,12.628,6.308,121.738,6.365,256.274
		c0.027,64.56,25.682,126.469,71.327,172.126c95.084,95.091,249.252,95.096,344.343,0.012
		c45.702-45.699,71.36-107.693,71.321-172.324c0.169-50.156-15.288-99.119-44.222-140.088L457.861,116z M473.355,256.227
		c-0.004,123.436-100.071,223.497-223.507,223.493c-59.266-0.002-116.105-23.543-158.016-65.446
		c-42.056-41.823-65.63-98.735-65.465-158.047c0-123.235,100.437-223.495,223.673-223.495c24.771,0.077,49.364,4.176,72.821,12.136
		V61h68.619l-27.974,39.3c-3.192,4.452-2.171,10.65,2.282,13.842c1.705,1.223,3.755,1.873,5.853,1.858h62.378l-6.2,4.854
		C457.496,159.73,473.503,207.319,473.355,256.227L473.355,256.227z"/>
	
		<linearGradient id="SVGID_5_" gradientUnits="userSpaceOnUse" x1="463.4565" y1="501.532" x2="463.4565" y2="27.59" gradientTransform="matrix(1 0 0 -1 0 502)">
		<stop  offset="0" style="stop-color:#00EFD1"/>
		<stop  offset="1" style="stop-color:#00ACEA"/>
	</linearGradient>
	<path style="fill:url(#SVGID_5_);" d="M434.58,53.635c1.527,3.779,5.161,6.284,9.237,6.365h44.044V40h-19.925l22.236-22.459
		c2.861-2.956,3.708-7.322,2.161-11.134c-1.523-3.789-5.155-6.308-9.238-6.407h-47.234v20h23.115l-22.235,22.5
		C433.879,45.456,433.032,49.823,434.58,53.635z"/>
</g>
<g>
</g>
<g>
</g>
<g>
</g>
<g>
</g>
<g>
</g>
<g>
</g>
<g>
</g>
<g>
</g>
<g>
</g>
<g>
</g>
<g>
</g>
<g>
</g>
<g>
</g>
<g>
</g>
<g>
</g>
</svg>
